<?xml version="1.0" encoding="UTF-8" standalone="no"?>
<svg
   version="1.1"
   width="112"
   height="96"
   viewBox="0 0 14 12"
   class="octicon octicon-list-unordered"
   aria-hidden="true"
   fill="currentColor"
   id="svg1"
   sodipodi:docname="list-unordered.svg"
   inkscape:version="1.3.2 (091e20e, 2023-11-25, custom)"
   xmlns:inkscape="http://www.inkscape.org/namespaces/inkscape"
   xmlns:sodipodi="http://sodipodi.sourceforge.net/DTD/sodipodi-0.dtd"
   xmlns="http://www.w3.org/2000/svg"
   xmlns:svg="http://www.w3.org/2000/svg">
  <defs
     id="defs1" />
  <sodipodi:namedview
     id="namedview1"
     pagecolor="#ffffff"
     bordercolor="#000000"
     borderopacity="0.25"
     inkscape:showpageshadow="2"
     inkscape:pageopacity="0.0"
     inkscape:pagecheckerboard="0"
     inkscape:deskcolor="#d1d1d1"
     inkscape:zoom="9.1640625"
     inkscape:cx="55.97954"
     inkscape:cy="47.959079"
     inkscape:window-width="2560"
     inkscape:window-height="1369"
     inkscape:window-x="-8"
     inkscape:window-y="-8"
     inkscape:window-maximized="1"
     inkscape:current-layer="svg1" />
  <path
     fill-rule="evenodd"
     d="M 1,2 A 1,1 0 1 0 1,0 1,1 0 0 0 1,2 Z M 4.75,0.5 a 0.75,0.75 0 0 0 0,1.5 h 8.5 a 0.75,0.75 0 0 0 0,-1.5 z m 0,5 a 0.75,0.75 0 0 0 0,1.5 h 8.5 a 0.75,0.75 0 0 0 0,-1.5 z m 0,5 a 0.75,0.75 0 0 0 0,1.5 h 8.5 a 0.75,0.75 0 0 0 0,-1.5 z M 2,6 A 1,1 0 1 1 0,6 1,1 0 0 1 2,6 Z m -1,6 a 1,1 0 1 0 0,-2 1,1 0 0 0 0,2 z"
     id="path1" />
</svg>
