<?xml version="1.0" encoding="UTF-8" standalone="no"?>
<svg
   aria-hidden="true"
   focusable="false"
   class="octicon octicon-file-zip"
   viewBox="0 0 16 16"
   width="16"
   height="16"
   fill="currentColor"
   style="display: inline-block; user-select: none; vertical-align: text-bottom; overflow: visible;"
   version="1.1"
   id="svg1"
   sodipodi:docname="zip.svg"
   inkscape:version="1.3.2 (091e20e, 2023-11-25, custom)"
   xmlns:inkscape="http://www.inkscape.org/namespaces/inkscape"
   xmlns:sodipodi="http://sodipodi.sourceforge.net/DTD/sodipodi-0.dtd"
   xmlns="http://www.w3.org/2000/svg"
   xmlns:svg="http://www.w3.org/2000/svg">
  <defs
     id="defs1" />
  <sodipodi:namedview
     id="namedview1"
     pagecolor="#ffffff"
     bordercolor="#000000"
     borderopacity="0.25"
     inkscape:showpageshadow="2"
     inkscape:pageopacity="0.0"
     inkscape:pagecheckerboard="0"
     inkscape:deskcolor="#d1d1d1"
     inkscape:zoom="73.3125"
     inkscape:cx="8"
     inkscape:cy="8"
     inkscape:window-width="2560"
     inkscape:window-height="1369"
     inkscape:window-x="-8"
     inkscape:window-y="-8"
     inkscape:window-maximized="1"
     inkscape:current-layer="svg1" />
  <path
     d="M3.5 1.75v11.5c0 .09.048.173.126.217a.75.75 0 0 1-.752 1.298A1.748 1.748 0 0 1 2 13.25V1.75C2 .784 2.784 0 3.75 0h5.586c.464 0 .909.185 1.237.513l2.914 2.914c.329.328.513.773.513 1.237v8.586A1.75 1.75 0 0 1 12.25 15h-.5a.75.75 0 0 1 0-1.5h.5a.25.25 0 0 0 .25-.25V4.664a.25.25 0 0 0-.073-.177L9.513 1.573a.25.25 0 0 0-.177-.073H7.25a.75.75 0 0 1 0 1.5h-.5a.75.75 0 0 1 0-1.5h-3a.25.25 0 0 0-.25.25Zm3.75 8.75h.5c.966 0 1.75.784 1.75 1.75v3a.75.75 0 0 1-.75.75h-2.5a.75.75 0 0 1-.75-.75v-3c0-.966.784-1.75 1.75-1.75ZM6 5.25a.75.75 0 0 1 .75-.75h.5a.75.75 0 0 1 0 1.5h-.5A.75.75 0 0 1 6 5.25Zm.75 2.25h.5a.75.75 0 0 1 0 1.5h-.5a.75.75 0 0 1 0-1.5ZM8 6.75A.75.75 0 0 1 8.75 6h.5a.75.75 0 0 1 0 1.5h-.5A.75.75 0 0 1 8 6.75ZM8.75 3h.5a.75.75 0 0 1 0 1.5h-.5a.75.75 0 0 1 0-1.5ZM8 9.75A.75.75 0 0 1 8.75 9h.5a.75.75 0 0 1 0 1.5h-.5A.75.75 0 0 1 8 9.75Zm-1 2.5v2.25h1v-2.25a.25.25 0 0 0-.25-.25h-.5a.25.25 0 0 0-.25.25Z"
     id="path1"
     style="stroke:none;fill:#333333" />
</svg>
